<?xml version="1.0" encoding="utf-8"?>
<!-- Generator: Adobe Illustrator 19.2.0, SVG Export Plug-In . SVG Version: 6.00 Build 0)  -->
<svg version="1.0" id="Ebene_1" xmlns="http://www.w3.org/2000/svg" xmlns:xlink="http://www.w3.org/1999/xlink" x="0px" y="0px"
	 viewBox="0 0 100 100" style="enable-background:new 0 0 100 100;" xml:space="preserve">
<g>
	<g style="opacity:0.25;">
		<path style="fill:#55687A;" d="M65.9,31.6c-2.7-3.3-3.6,48.5-43.5,45.6c0,0,12.8,29.9,44.2,17.1C66.6,94.4,100.8,75.1,65.9,31.6"
			/>
	</g>
	<path style="fill:#55687A;" d="M51.8,98.6c-0.5,0-0.9,0-1.4,0c-15.3-0.6-28-12.4-30.1-28c-0.9-6.8,0.5-14.1,4.1-20.5L51.8,0.9
		L79.1,50c3.6,6.4,5,13.7,4.1,20.5c-2.1,15.6-14.8,27.4-30.1,28C52.7,98.6,52.2,98.6,51.8,98.6z M51.8,11L28.7,52.4
		c-3,5.5-4.3,11.7-3.5,17.4C27,83.1,37.7,93.1,50.6,93.7c0.8,0,1.6,0,2.4,0c12.9-0.5,23.6-10.5,25.4-23.8c0.8-5.8-0.5-12-3.5-17.4
		L51.8,11z"/>
	<path style="fill:#55687A;" d="M52.8,89.1c-1.4,0-2.5-1.1-2.5-2.5c0-1.4,1.1-2.5,2.5-2.5c8.9,0,16.1-7.2,16.1-16.1
		c0-1.4,1.1-2.5,2.5-2.5s2.5,1.1,2.5,2.5C73.8,79.7,64.3,89.1,52.8,89.1z"/>
</g>
</svg>
