<?xml version="1.0" encoding="utf-8"?>
<!-- Generator: Adobe Illustrator 21.0.2, SVG Export Plug-In . SVG Version: 6.00 Build 0)  -->
<svg version="1.1" id="Layer_1" xmlns="http://www.w3.org/2000/svg" xmlns:xlink="http://www.w3.org/1999/xlink" x="0px" y="0px"
	 viewBox="0 0 864 864" style="enable-background:new 0 0 864 864;" xml:space="preserve">
<style type="text/css">
	.st0{fill:#3C2415;}
	.st1{fill:#B53F42;}
	.st2{fill:#7D2725;}
	.st3{fill:#FFFFFF;}
</style>
<path class="st0" d="M417.2,11.9c27.8,1.3,64,2.2,100.1,4.9c40.8,3,81.2,8.7,120.1,22.4c15.3,5.4,30,12.2,42.5,23
	c7.4,6.4,12.9,14,15.9,23.5c7.4,22.9,14.5,45.8,22.9,68.3c8.2,22.1,2.5,40.7-13.4,56.1c-9.2,8.9-20.7,15.5-31.5,22.7
	c-3,2-4.4,3.6-4.7,7.3c-2.7,29.8-5.8,59.6-8.6,89.4c-2.8,29.6-5.5,59.3-8.3,88.9c-2.8,29.6-5.8,59.3-8.6,88.9
	c-2.8,29.8-5.5,59.7-8.4,89.5c-2.8,29.6-5.8,59.3-8.6,88.9c-2.5,25.7-5.2,51.4-7.1,77.1c-1.5,20.8-9.9,37-27.5,48.6
	c-19.7,13-41.7,19.8-64.4,24.9c-42.7,9.5-86.1,13.2-129.7,12.2c-45.4-1-90.7-4.9-134.2-19.2c-13.3-4.4-26.2-10.6-38.3-17.6
	c-18.4-10.5-26.8-27.4-28.4-48.5c-2.4-31-5.8-61.9-8.7-92.9c-2.8-29.6-5.5-59.3-8.3-88.9c-2.8-29.6-5.8-59.3-8.6-88.9
	c-2.4-25.7-4.8-51.4-7.2-77.1c-2.5-25.9-5.1-51.8-7.6-77.6c-2.8-29.6-5.5-59.3-8.3-88.9c-0.4-3.8-0.3-7.6-1.3-11.2
	c-0.5-1.8-2.4-3.6-4.1-4.5c-13.4-7.1-26.1-15.2-35.7-27.2c-11.9-14.9-16.6-31-9.9-50c8.6-23.9,16.1-48.2,24.2-72.3
	c4.5-13.4,14.5-22.3,26-29.5c20.7-13,43.7-19.9,67.3-25.2c41.1-9.3,82.9-13.1,124.9-14.8C362.8,13.2,385.8,12.8,417.2,11.9z"/>
<path class="st1" d="M407.2,843.2c-45.9-1.3-92.9-4.4-138.4-18.1c-16.7-5-32.6-11.5-46.4-22.5c-10.5-8.4-17.2-18.9-18.5-32.5
	c-2.6-27-5.3-54-7.9-81c-2.5-25.7-4.9-51.4-7.4-77.1c-2.4-25.5-4.9-51-7.3-76.5c-2.4-25.5-4.8-51-7.2-76.5
	c-2.5-26.1-5-52.1-7.5-78.2c-2.5-26.1-5-52.1-7.5-78.2c-2.1-21.6-4.3-43.1-6-64.7c-0.4-4.8-1.9-7.3-6.2-9.4
	c-13.1-6.4-25.3-14.3-34.7-25.7c-10.9-13.1-15.4-27.4-9.4-44.5c8.6-24.3,16.3-48.9,24.5-73.3c3.4-10.1,10.8-17.1,19.2-23.1
	c19.2-13.6,41.3-20.5,63.9-26c36.2-8.8,73-13.3,110.1-14.9c35-1.5,70.1-2.7,105.2-2.7c44.3,0,88.6,2.3,132.5,8.5
	c32.3,4.6,64.2,10.6,94,24.7c6.3,3,12.3,6.5,18,10.4c10.2,7,17.4,16.2,21.2,28.4c7.4,23.8,15.4,47.5,23.4,71.1
	c5.3,15.8-0.2,28.8-9.8,40.8c-9.8,12.1-22.8,20.2-36.5,27c-3.1,1.5-4.4,3.4-4.7,6.8c-3.7,39.2-7.5,78.4-11.2,117.6
	c-3.9,41.6-7.7,83.3-11.7,125c-4,41.6-8.2,83.3-12.1,124.9c-4.3,45.6-8.5,91.2-12.8,136.8c-0.8,8.3-1.8,16.5-2.3,24.8
	c-1.3,19.5-11.2,33.4-27.6,43.4c-19.9,12.2-41.8,18.6-64.4,23.3C484.4,839.8,446.5,842.4,407.2,843.2z M657.2,134.4
	c-18.6,5.8-36.3,12.4-54.4,16.8c-52.9,12.8-106.9,15.7-161,16.8c-55.6,1.2-111.2,0.1-166.6-6.4c-27.7-3.2-55.2-7.5-81.9-15.9
	c-11.2-3.5-22.1-8-33.5-12.2c-3.7,10.8-7,22-11.2,32.8c-2.4,6.1-0.9,10.4,4.3,13.4c8.7,4.8,17.3,10,26.6,13.5
	c39.4,15.3,80.8,22.2,122.6,26.9c43.9,5,87.9,6.6,132.1,5.4c44.5-1.2,88.8-4.9,132.6-13.2c26.8-5.1,53.4-11.2,78.4-22.7
	c7.8-3.6,14.8-8.8,21.9-13.7c1.4-1,2.7-4.1,2.2-5.7C665.3,157.8,661,145.6,657.2,134.4z M616.1,249.3
	c-138.7,30.6-276.8,30.6-415.2,0.1c0,0.7-0.3,1.8-0.2,2.8c2.8,29.4,6.7,58.8,8.2,88.3c0.7,13.1,5.9,17.6,17.6,20.8
	c47.6,13.1,96.2,17.8,145.2,19.5c48.6,1.7,97.3,0.7,145.7-5.5c27.1-3.4,54-7.8,80-16.5c9.3-3.1,9-3.2,9.8-12.8
	c2-22.5,4.2-45,6.3-67.5C614.4,268.7,615.2,258.8,616.1,249.3z M235.7,614.8c0,1.1-0.2,3.2,0,5.2c1.9,20.6,3.8,41.3,5.8,61.9
	c2.5,25.9,5.3,51.7,7.4,77.6c0.4,5.5,2.4,9,7,11c9.5,4,18.9,8.6,28.8,11.3c48.4,13.6,97.9,16.1,147.8,14.3
	c32.2-1.2,64.3-4.4,95.4-13.3c11.3-3.2,22.2-8.1,33-12.8c2.6-1.2,5.6-4.5,6-7.3c1.7-11.7,2.5-23.6,3.6-35.4c3-31.1,6-62.3,8.9-93.4
	c0.6-6.7,1-13.3,1.5-19.3C465.6,642.6,350.7,642.6,235.7,614.8z M636.2,94.6c-0.1-0.6-0.2-1.3-0.3-1.9C611.8,83,586.4,78.3,561,74.5
	c-50-7.6-100.5-10-151-10.1c-28.6,0-57.3,1.5-85.9,3c-36.7,2-73.2,6.4-109,14.8c-11.6,2.7-23,6.5-34.5,9.9c0.1,0.7,0.1,1.3,0.2,1.9
	c7.7,2.4,15.2,5.3,23,7.3c55.4,14.5,112.1,18.8,169.1,20c37.1,0.8,74.3-0.5,111.4-1.9c37.1-1.4,74-5.8,110.3-13.7
	C608.6,102.7,622.3,98.4,636.2,94.6z"/>
<g>
	<path class="st2" d="M162.9,142.3c19.2,5.4,37.8,11.4,56.8,15.9c29.9,7.1,60.4,10.9,91.1,12.2c42.9,1.8,85.9,3.5,128.8,3.1
		c56.7-0.6,113.3-4,168.7-17.8c15.1-3.7,29.8-9.1,45.4-13.9c3,8.9,6.4,18.5,9.2,28.4c0.4,1.3-2.2,4.4-4,5.3
		c-10.7,5.4-21.3,11.3-32.5,15.4c-31.4,11.3-64.2,17.2-97.2,21.7c-45.5,6.2-91.2,8.5-137,7.6c-63.8-1.3-127.1-6.8-188.7-24.7
		c-15.9-4.6-31.5-9.9-45.6-19.2c-3.9-2.6-5.1-4.9-3.2-9.6C157.9,158.3,160.4,149.7,162.9,142.3z"/>
	<path class="st2" d="M207.4,256.1c66.5,16,133.6,21.6,201.1,21.6c67.5,0,134.5-5.7,201.3-21.7c-1.1,11.9-2,22.9-3.1,33.9
		c-1.7,18.6-3.7,37.1-5.1,55.7c-0.4,4.4-1.8,6.6-6.1,7.9c-25.7,8.2-52.2,12.8-78.9,16.1c-48,6.1-96.2,7-144.5,5.5
		c-48-1.6-95.7-6.3-142.4-18.9c-9.2-2.5-14.8-5.5-15.3-17c-1.2-25.7-4.5-51.4-7-77.1C207.2,260.6,207.4,258.9,207.4,256.1z"/>
	<path class="st2" d="M241.9,622.4c111.2,25.1,221.8,25,333,0.1c-1.1,12.1-2.2,24.4-3.4,36.7c-2.1,21.9-4.2,43.9-6.3,65.8
		c-1.1,11.8-2.1,23.7-3.6,35.4c-0.3,2.1-2.7,4.8-4.7,5.5c-14.2,5.2-28.3,11.3-43,14.6c-45,10.1-90.6,12-136.6,9.6
		c-32.4-1.7-64.5-5.5-95.6-15.1c-7.5-2.3-14.6-5.9-21.9-9c-3.4-1.4-4.8-3.9-5.1-7.8c-3.5-37.7-7.3-75.4-10.9-113.1
		C243,637.5,242.5,629.9,241.9,622.4z"/>
	<path class="st2" d="M196.2,93.7c85.4-29.2,317.8-33.1,422.3-0.9c-13.9,10.9-127,23.7-210,23.5C337.6,116.1,266.9,112.4,196.2,93.7
		z"/>
</g>
<g>
	<path class="st3" d="M89.3,710.8c0-2.7-1.7-4.4,0-6.1c3.7-4.1,50.6-64.7,99.8-115.7c2.6-3.3,3.7-2,5.7-0.4l8.3,7.5
		c2.2,2.2,1.7,3.9-1.1,7.2c-6.8,7.2-52.5,55.2-65.1,72.5c8.5-0.6,11.6,1.1,14,1.8c1.5,0.3,5.1-0.7,8.9,9.4
		c4.1,15.6,35.8,88.8,41.1,100.2c3,7,0.2,8.5-3.5,8.7c-4.2,0.6-12.7,1.3-15.6,1.5c-3.9,0.4-4.8-1.8-6.6-5.7
		c-11.7-24.1-34.3-83.8-41.7-111c-4.2,4.6-27.3,33.2-36.1,43.2c-2.4,2.8-3.7,3.3-4.4,0C92.3,720.9,89.3,715.8,89.3,710.8z"/>
	
		<ellipse transform="matrix(0.7065 -0.7077 0.7077 0.7065 -412.2296 324.5977)" class="st3" cx="185.2" cy="659.3" rx="15.6" ry="15.6"/>
	<path class="st3" d="M313.3,599.7c-0.9-2.2-2.2-2.6-4.2-2.4c-1.8,0-11.8,0.4-14.9,1.3c-1.3,0-2.2,2.2-1.8,4.4
		c-1.2,19.1-1.9,36.8-2.2,57.2c-2.8-7.2-9.8-28.3-11.3-34.6c-0.9-2.2-2.2-2.6-4.2-2.4c-1.8,0-12,0.6-15.1,1.5
		c-1.5,0.7-1.8,0.4-1.3,2.6c-0.5,19.7,0.1,41,0.2,60.5c-2.8-7.2-11.2-31.7-12.7-38c-0.9-2.2-2.2-2.6-4.2-2.4
		c-1.8,0-11.8,1.7-14.9,2.6c-1.5,0.7-1.8,0.4-1.3,2.6c3.9,18.4,4.4,65.5,2.3,81.9c0.2,2.4-1.5,4.2-2.5,0.9
		c-5.8-11.5-11.8-29.2-14.7-40.2c-3.9-10.1-7.5-9.2-8.9-9.4c-2.4-0.7-5.9-1.1-14.5-0.5c-2.2,0.9-3.5,0.9-2.9,3.7
		c7.4,27.2,11.5,34.9,22.6,60.1c2.3,5.3,4.3,6,6.6,5.7c2.8-0.2,11.4-0.8,15.6-1.5c3.7-0.2,4.8-1.7,5.7-11.8
		c0.3-12.5,3.2-45.5,1.7-56c2,6.1,9.8,24.5,12,32.4c0.9,3.1,1.7,4.4,4.4,4c2.6-0.4,11-3,13.4-3.7c2.2-0.4,2.4-1.1,2.4-3.7
		c-2.3-20.4-1.8-54.1-1.1-63.3c2.2,7.7,7.2,27.6,9.3,35.5c0.9,3.1,1.7,4.4,4.4,4c2.6-0.4,14.5-2.1,16.9-2.8c2.2-0.4,2.4-1.1,2.4-3.7
		c-2.3-21.3-0.3-47.3-0.3-58.9c1.5,14,8.7,29.6,13.7,34.6c5.9,5.9,14.2,6,21.7-1.5c5.7-5.7,4.9-13.1,2.9-19c-1.1,4.2-6.2,7.4-10.5,3
		c-3.7-3.7-9.2-12.3-10.7-21.7C314.6,610.2,314.8,606.1,313.3,599.7z"/>
	<path class="st3" d="M681.5,243.7c-3.5-1.8-8.1-7.7-9.6-15.8c-0.9-3.5-7-6.2-11.1-6.4c-3.5-0.9-6.6-0.6-8.4-1.1
		c-1.1-0.2-2.5-0.5-2.3,1.3c0.6,9,3.1,42.2,10.2,65.7c1.7,8.8,5.4,24.8,1.9,28.3c-2.6,2.6-9.4-4.6-12.4-11.7
		c-3.5-7.5-10.2-23.5-11.5-30.9c-0.2-2.4-1.5-5-4.4-4.8c-2.4-0.7-10.1-0.9-12-1.1c0,0-2.6-0.6-2.3,1.9c0,6.6-1.6,46.5-2.1,57.9
		c-1.7-4.4-8.9-23.9-10.2-27.9c-0.4-1.8-0.6-3.3-2.8-3.3c-2.2-0.4-14.2,0.2-16-0.3c-2,0.2-2,0.1-2.1,2.4c-0.5,6.1-0.5,33.3-6.8,39.2
		c-9.9-11.9-25.8-14.5-37.7-0.6c-13.4,15.5-7,49.3,3.9,65.1c1.5,8.1-0.1,26.3-4.7,30.9c-4.6,4.6-10.1-6.8-12-12.1
		c-3.9-10.5-24.3-64-24.3-64c12.3-13.1,41.3-42.8,45.1-46.1c2.9-2.4,1.8-3.5,0.7-4.6c-2.4-1.5-5.2-3.1-6.8-3.7c-1.5-0.7-2.8-2-5,0.2
		c-4,3.9-29.9,34.5-37.8,43.7c-1.5-4.2-4.8-12.3-5.4-14.7c-0.9-2.6-2.6-4-5.2-4c-3.7,0.2-11.8,0-14.5-0.1c-2,0.2-3.9,1.3-2.9,4.6
		c2.4,5.9,10.2,25.2,12.6,32.5c-2.4,2.8-7.9,10-9.9,12c-1.1,1.1-2.4,2-2,4.2c0.2,2,1.3,5.3,1.3,5.3c0.2,2.4,2,2,3.9,0
		c3.7-4.1,9.2-9.2,10.8-10.7c2.8,9.4,13,34.7,16.5,47.4c3.7,12.1,7.3,35.1,0.7,41.6c-3.3,3.3-9.6-2.7-12.4-10.3
		c-2.6-7-11.9-33.6-13.7-42.3c-0.9-3.5-3.3-6.4-6.8-4.2c-2.9,2-4.6,5.5-9.2,3.9c-2.8-1.1-10.3-10.3-13.3-9.9
		c-2.8,0.2-3.5,2.2-2.6,4.8c3,9.6,6.9,33.3,1.4,48.9c-10.1-10.2-22.4-8.3-39,8.2L388,486.7c-3.7-9-17.8-49.6-19.3-53.7
		c-1.1-2.9-3.3-5.9-7.2-5.1l-9,1.5c-2.4,0.2-5.9,1.5-4.4,7c4.8,14,20.4,57,24.7,67.5c-4,4.4-20.2,21.4-27.3,28.8
		c-4.6-12.9-20.6-51.5-22.8-59c-0.6-3.3-3.7-6.4-6.3-5.9c-3.9,0-12.7,0-16.4,0.2c-3.3,0.2-4,3.5-2.4,7.2c2.8,7.7,26.3,66,31.3,77.2
		c-3.1,3.5-8.4,9.2-5.3,12.7c3.1,3.5,6.6,0.5,8.8-2.2c2.4,5.9,13.5,31.6,17.8,42.1c1.5,5,4.6,9.9,9.2,10.1l14.7-0.6
		c2.6,0,6.1-0.4,3.3-7.2c-3-7-22.2-52.2-24.1-57.3c9.6-3.5,34.8-1.4,51.8,20.5c0.9,1.3,2.2,4.4,5.5,3.7l8.5-1.5
		c2.8-0.2,3.1-2.6,1.8-6.1c-1.9-4.2-14.2-32.5-22.5-53.3c-2.9-7.3-5.4-13.7-6.7-17.8l18.7-18.6c-2.2,4.4-6,32.2,12.7,51.1
		c12.7,12.8,27.8,11.3,40.1-1c5-5,9.7-18,7.7-33.3c-1.3-10.2-5.7-21.5-14.9-32c2.7-6.6,3.8-24.3,3.6-35.9c1.5,1.5,3.3,2.4,5.9,2.4
		c1.1,11.2,7.7,41.6,18.2,52.2c6.9,7,15.5,5.6,24.3-3.2c5.1-5,13.2-19.2,8.9-39c5.9,10.3,15.9,15.6,26.9,4.7
		c8.1-8.1,9-20.1,9.5-34.4c8.7,8.2,21.7,9,32-1.2c10.4-10.3,13.1-29.8,6.1-50c-1.6-4.6-3.7-9.3-6.3-14c3.7-7.2,6.6-16.6,7.8-25.2
		c1.9,8.1,8.2,27.6,12.4,37.5c0.6,2.9,1.5,5.5,3.9,5.3l13.6-0.8c3.1,0,4.2-3.3,3.7-6.3c-0.4-3.1-0.7-46-0.5-54.1
		c3.2,12.9,9.3,20.4,12.4,23.5c4.6,4.6,17.3,12.1,27.8,1.6c10.6-10.5,1.8-26.3-0.5-41.4c-2.4-10.3-5.2-28.5-5.1-35.1
		c2.4,5.9,7.5,11.5,11.2,15.3c6.7,6.7,20.7,5.6,24.7,12.3c1.5,4.2,2.3,6.7-1.7,10.6c-8.7,8.6-16.5-6.4-19.1-5.5
		c-3.1,0.4,0.1,8.7,1.4,12.6c2,5,7.8,6.3,16.3,1c11.5-7.1,17.9-16.7,13.4-30.9C704,254.1,694.1,249,681.5,243.7z M389.8,543
		c-8.5-7.3-26.7-9.7-35.5-5.8c7-7.9,17.1-18.3,22.4-24.5c1.1,2.8,3.3,8,5.6,13.4C385.3,532.9,388.5,540.1,389.8,543z M459.8,496.8
		c0.3,5.7-1,11.3-5.3,15.6c-5.9,5.9-14,2.1-18.4-2.3c-4.8-4.8-10.9-20.2-6.2-32.2c6.1,4,14.7,3.8,21.9-5.6
		C454.5,477.2,459.3,487.2,459.8,496.8z M581.5,391c-5.9,5.9-12.1,3.7-16.4-0.7c-4.8-4.8-11.8-19.8-9.3-32.2
		c6.1,4,14.7,6.8,21.5-3.9c1.5,2.7,3.5,6.7,5.1,11.3C585.6,374.4,587.5,385.1,581.5,391z"/>
</g>
</svg>
