<?xml version="1.0" encoding="utf-8"?>
<!-- Svg Vector Icons : http://www.onlinewebfonts.com/icon -->
<!DOCTYPE svg PUBLIC "-//W3C//DTD SVG 1.1//EN" "http://www.w3.org/Graphics/SVG/1.1/DTD/svg11.dtd">
<svg version="1.1" xmlns="http://www.w3.org/2000/svg" xmlns:xlink="http://www.w3.org/1999/xlink" x="0px" y="0px" viewBox="0 0 1000 1000" enable-background="new 0 0 1000 1000" xml:space="preserve">
<metadata> Svg Vector Icons : http://www.onlinewebfonts.com/icon </metadata>
<g><path d="M500,990c-66.1,0-130.3-13-190.7-38.5c-58.4-24.7-110.8-60-155.7-105c-45-45-80.3-97.4-105-155.7C23,630.3,10,566.1,10,500c0-66.1,13-130.3,38.5-190.7c24.7-58.4,60-110.8,105-155.7c45-45,97.4-80.3,155.7-105C369.7,23,433.9,10,500,10c66.1,0,130.3,13,190.7,38.5c58.3,24.7,110.8,60,155.7,105s80.3,97.4,105,155.7C977,369.7,990,433.9,990,500c0,66.1-13,130.3-38.5,190.7c-24.7,58.3-60,110.8-105,155.7s-97.4,80.3-155.7,105C630.3,977,566.1,990,500,990z M500,41.5c-61.9,0-121.9,12.1-178.5,36c-54.6,23.1-103.6,56.2-145.7,98.3c-42.1,42.1-75.2,91.1-98.3,145.7c-23.9,56.5-36,116.6-36,178.5c0,61.9,12.1,121.9,36,178.5c23.1,54.6,56.2,103.6,98.3,145.7c42.1,42.1,91.1,75.2,145.7,98.3c56.5,23.9,116.6,36,178.5,36s121.9-12.1,178.5-36c54.6-23.1,103.6-56.2,145.7-98.3s75.2-91.1,98.3-145.7c23.9-56.5,36-116.6,36-178.5c0-61.9-12.1-121.9-36-178.5c-23.1-54.6-56.2-103.6-98.3-145.7c-42.1-42.1-91.1-75.2-145.7-98.3C621.9,53.6,561.9,41.5,500,41.5z"/><path d="M500,662.7c-8.7,0-15.8-7.1-15.8-15.8V353c0-8.7,7.1-15.8,15.8-15.8s15.8,7.1,15.8,15.8V647C515.8,655.7,508.7,662.7,500,662.7z"/><path d="M653,515.8H347c-8.7,0-15.8-7.1-15.8-15.8s7.1-15.8,15.8-15.8h306c8.7,0,15.8,7.1,15.8,15.8S661.7,515.8,653,515.8z"/></g>
</svg>