<svg id="Capa_1" data-name="Capa 1" xmlns="http://www.w3.org/2000/svg" viewBox="0 0 36.96 36.96"><defs><style>.cls-1{fill:#fff;}.cls-2{fill:#cdcbcc;}.cls-3,.cls-5{fill:none;}.cls-3,.cls-4,.cls-5{stroke:#4f484c;stroke-width:1.08px;}.cls-3,.cls-4{stroke-miterlimit:10;}.cls-4{fill:#f4f1eb;}.cls-5{stroke-linecap:round;stroke-linejoin:round;}</style></defs><title>sugar-reduction</title><path class="cls-1" d="M81.23,47.2L71.6,41.76a1.49,1.49,0,0,1-.76-1.3V29.64a1.49,1.49,0,0,1,.76-1.3l9.63-5.44a1.49,1.49,0,0,1,1.46,0l9.63,5.44a1.49,1.49,0,0,1,.76,1.3V40.46a1.49,1.49,0,0,1-.76,1.3L82.69,47.2A1.49,1.49,0,0,1,81.23,47.2Z" transform="translate(-63.43 -16.35)"/><path class="cls-2" d="M81.82,45.06s7.54-3.66,8.58-5.78,2-9.69,1.91-10.62c0-.25.7-0.66,0.77,0.51,0.21,3.2,0,11,0,11l-0.57,1.17L81.72,47Z" transform="translate(-63.43 -16.35)"/><path class="cls-3" d="M81.23,47.2L71.6,41.76a1.49,1.49,0,0,1-.76-1.3V29.64a1.49,1.49,0,0,1,.76-1.3l9.63-5.44a1.49,1.49,0,0,1,1.46,0l9.63,5.44a1.49,1.49,0,0,1,.76,1.3V40.46a1.49,1.49,0,0,1-.76,1.3L82.69,47.2A1.49,1.49,0,0,1,81.23,47.2Z" transform="translate(-63.43 -16.35)"/><line class="cls-4" x1="18.29" y1="18.68" x2="18.29" y2="30.58"/><polyline class="cls-3" points="7.9 12.4 18.3 18.68 28.87 12.63"/><path class="cls-5" d="M94.51,22.24" transform="translate(-63.43 -16.35)"/><circle class="cls-5" cx="18.48" cy="18.48" r="17.94"/></svg>