<?xml version="1.0" encoding="utf-8"?>
<!-- Generator: Adobe Illustrator 15.0.0, SVG Export Plug-In . SVG Version: 6.00 Build 0)  -->
<!DOCTYPE svg PUBLIC "-//W3C//DTD SVG 1.1//EN" "http://www.w3.org/Graphics/SVG/1.1/DTD/svg11.dtd">
<svg version="1.1" id="Layer_1" xmlns="http://www.w3.org/2000/svg" xmlns:xlink="http://www.w3.org/1999/xlink" x="0px" y="0px"
	 width="792px" height="208.5px" viewBox="0 0 792 208.5" enable-background="new 0 0 792 208.5" xml:space="preserve">
<g>
	<path fill="#ED1C24" d="M148.588,58.076c1.231-1.22,1.212-2.795,2.812-2.788c3.601-0.185,52.628-6.371,98.433-7.17
		c2.701-0.289,2.563,0.778,2.79,2.412l0.369,7.202c-0.009,2-1.011,2.596-3.812,2.783c-6.401,0.172-49.206,1.186-62.816,3.326
		c4.185,3.618,4.775,5.821,5.569,7.224c0.558,0.789,2.629,2.025-0.237,8.399c-5.239,8.977-24.249,56.895-27.082,64.482
		c-1.82,4.592-3.817,3.983-5.61,2.375c-2.193-1.609-6.377-5.228-7.772-6.434c-1.993-1.609-1.387-3.006-0.376-5.602
		c5.672-16.375,22.636-53.902,31.705-69.663c-4.001,0.183-27.612,2.68-36.215,3.242c-2.401,0.189-3.199-0.214-1.991-2.009
		C145.362,64.063,146.298,60.347,148.588,58.076z"/>
	<circle fill="#ED1C24" cx="215.901" cy="78.37" r="10.041"/>
	<path fill="#ED1C24" d="M301.565,109.745c0.606-1.397,0.209-2.199-0.787-3.003c-0.796-0.803-5.577-5.225-7.373-6.232
		c-0.598-0.603-2-0.008-2.806,1.188c-9.235,8.16-17.669,15.923-27.109,25.082c2.02-4.591,8.476-17.363,10.691-20.954
		c0.606-1.397,0.209-2.199-0.787-3.003c-0.796-0.804-5.777-5.226-7.573-6.233c-0.998-0.404-0.998-0.604-1.803,0.592
		c-9.238,8.76-18.682,18.719-27.588,27.68c2.02-4.591,9.352-19.56,11.568-23.15c0.606-1.397,0.21-2.199-0.787-3.004
		c-0.796-0.803-6.18-4.627-7.976-5.635c-0.999-0.404-0.998-0.604-1.803,0.592c-6.645,10.171-27.939,31.878-36.368,38.442
		c-1.005,1.195-2.605,1.188-1.527-0.715c2.626-7.898,7.943-18.708,11.639-25.041c2.866-6.374,0.795-7.61,0.237-8.399
		c-0.794-1.404-2.186-3.209-6.37-6.828c-1.397-0.606-1.995-1.208-3.002,0.387c-9.069,15.76-10.692,21.153-17.165,37.726
		c-1.36,3.491-0.742,4.699,0.375,5.602c1.395,1.206,5.579,4.825,7.772,6.434c1.793,1.608,2.994,1.413,8.012-2.765
		c5.825-5.575,22.285-19.303,26.379-24.793c-1.886,3.7-6.739,15.679-9.358,20.268c-1.008,1.796-1.212,2.795,0.183,3.801
		c1.396,1.006,6.384,3.628,7.781,4.434c1.197,0.805,1.598,0.607,2.803-0.587c8.245-10.364,23.912-25.496,28.399-29.385
		c-2.49,4.498-9.34,15.868-11.96,20.457c-1.008,1.796-1.212,2.795,0.184,3.801c1.396,1.006,7.576,5.633,8.972,6.439
		c1.196,0.805,1.597,0.607,2.802-0.588c8.647-10.762,21.495-21.707,26.789-26.992c-5.701,7.083-9.546,17.467-9.566,22.067
		c-0.024,5.4,3.76,9.216,10.56,9.246c5.2,0.023,8.217-3.764,10.032-7.356c-2.406,1.39-6.203,0.573-6.185-3.427
		c0.015-3.4,1.443-9.794,5.064-14.778C297.341,115.126,299.349,113.335,301.565,109.745z"/>
	<path fill="#ED1C24" d="M632.145,115.588c-0.79-2.404-0.169-7.201,2.851-11.588c1.208-1.995-0.374-6.002-2.165-8.01
		c-1.191-2.005-2.738-3.309-3.333-4.311c-0.397-0.602-0.932-1.364-1.651-0.44c-3.819,4.383-17.886,20.651-25.347,34.619
		c-3.221,4.786-8.86,13.762-12.06,13.748c-2.4-0.01-2.172-6.41-0.352-11.001c1.822-4.992,6.067-15.374,8.885-19.362
		c1.005-1.195,1.613-2.993,0.218-4.199c-0.794-1.403-4.178-5.018-4.974-6.021c0,0-0.901-1.457-1.901-0.186
		c-3.013,2.987-21.988,20.481-27.41,25.458c1.212-2.795,6.866-14.97,8.076-17.365c0.604-0.997,1.208-1.794,0.212-2.799
		c-0.794-1.204-6.572-6.429-7.167-7.432c-0.997-0.804-0.961-0.884-2.054,0.163c-3.011,2.587-15.413,14.961-21.012,14.737
		c0.907-9.929-5.12-18.422-16.924-17.474c-13.205,0.943-25.732,19.288-27.938,31.479c-3.019,4.387-12.052,11.948-16.252,11.93
		c-4.2-0.019-1.531-7.717,0.048-11c3.028-6.587,18.176-40.321,18.176-40.321c11.602-0.35,38.403-0.633,41.602-0.418
		c2.399,0.21,2.404-0.79,2.408-1.79c-0.393-1.802-0.983-3.805-1.379-4.806c-0.396-1.002-0.39-2.202-2.39-2.21
		c-3.6-0.016-29.41,2.072-37.212,2.638c1.211-2.595,3.434-7.785,4.24-9.182c0.807-1.597,0.613-2.998-0.582-4.203
		c-1.793-1.608-5.376-5.423-6.571-6.629c-0.996-0.804-2.395-1.21-3.403,0.785c-1.617,3.793-6.871,16.17-9.09,20.561
		c-2.401,0.189-8.204,0.964-10.004,0.957c-1-0.004-1.999-0.209-2.804,0.988c-0.805,0.997-1.813,2.992-1.813,2.992
		c-1.005,1.195-0.008,1.8,1.792,1.808c3.601-0.184,8.4,0.037,9.8,0.043c-3.024,5.587-9.895,21.757-14.127,29.139
		c-3.831,7.183-12.685,19.345-18.685,19.319c-3-0.013-3.175-5.614-0.955-10.404c2.02-4.392,9.891-20.757,13.112-25.543
		c1.208-1.995,1.419-4.394-1.178-5.005c-2.198-0.41-4.602,0.38-5.989-2.426c-0.792-1.804,0.041-9.4-1.554-10.607
		c-1.395-1.206-2.597-0.611-3.404,0.985c-3.025,5.787-12.08,18.348-21.7,22.906c0.041-9.267-6.406-14.028-21.539-14.094
		l-21.402,0.307c2.425-5.79,14.534-30.737,15.746-33.332c0.808-1.796,1.218-4.194-0.976-5.604l-4.785-3.421
		c-1.196-1.005-3.392-2.015-5.206,1.177c-4.237,8.582-16.754,35.327-19.584,42.115c-3.801,0.183-19.002,0.517-25.604,0.688
		c3.835-7.983,14.144-32.938,16.563-37.328c1.208-1.795,1.22-4.595-0.175-5.601c-1.792-1.808-5.775-5.826-7.568-7.434
		c-1.594-1.407-3.399-0.215-4.409,2.181c-2.221,4.79-18.184,42.121-21.017,49.509c-3.001,0.187-8.002,0.365-8.215,3.364
		s2.786,3.212,4.987,3.022c-1.617,3.793-8.29,20.564-11.12,27.352c-1.613,2.993-2.429,6.59-0.438,8.798l6.972,6.431
		c1.195,1.205,2.989,2.613,4.808-1.779c1.82-4.592,13.748-33.94,15.162-37.134c5.988,2.826,16.534,15.272,14.256,33.063
		c-0.204,1-1.013,2.996,0.782,4.204l4.586,3.22c1.395,1.206,2.599,0.211,3.609-1.984c1.047-2.803,8.387-21.307,14.102-34.56
		c2.019-4.682,3.834-8.708,5.098-11.157l17,0.074c-3.004,0.987-17.453,11.924-17.527,29.124
		c-0.051,11.667,7.522,17.833,18.722,17.882c4.558,0.02,12.656-3.757,18.733-11.657c4.056-5.273,7.211-12.384,7.812-21.428
		c4.208-1.782,12.841-9.344,18.064-14.722c-0.006,1.4,0.389,2.602,1.583,3.807c-4.625,5.58-15.499,22.533-15.541,32.133
		c-0.028,6.333,4.491,9.62,12.558,9.655c4.6,0.02,14.812-2.735,21.86-13.705c-2.032,7.391,0.137,14.4,10.137,14.444
		c7.415,0.032,13.273-5.076,20.05-11.313c0.242,7.735,5.796,14.026,15.139,14.066c9.437,0.042,19.569-7.592,25.646-20.012
		c1.393-2.847,2.573-5.945,3.482-9.261c5.007-1.579,10.62-4.554,15.035-7.935c-2.82,4.588-8.872,16.361-11.5,22.75
		c-1.007,1.596-1.814,3.192-0.618,4.197l6.575,5.829c1.394,1.406,3.398,0.415,4.605-1.18s20.693-21.31,24.509-24.894
		c-4.433,7.381-5.06,13.578-5.072,16.378c-0.019,4.2,2.342,13.41,11.941,13.452c9.6,0.042,12.849-11.144,18.684-19.119
		c3.625-5.784,10.667-15.354,13.681-18.341c-1.617,3.793-1.838,8.692-1.853,12.092c-0.026,6.1,6.917,12.012,5.653,16.895
		c-1.211,2.595-1.986,4.117-5.616,4.03c-7.9-0.035-4.583-10.445-6.179-11.252c-1.595-1.207-3.917,3.983-5.128,6.378
		c-1.414,3.194,0.687,6.46,6.965,7.93c8.472,2.03,15.798,0.569,20.235-8.012C637.679,130.612,635.508,123.802,632.145,115.588z
		 M362.326,118.81c-0.568-7.203-7.728-16.634-13.518-18.859c6.802-0.37,16.202-0.529,21.404-0.907c-0.8,1.758-2.15,5.143-3.532,8.67
		C364.924,112.197,363.118,116.911,362.326,118.81z M415.407,129.717c-2.499,2.746-5.648,4.701-9.548,4.684
		c-5.4-0.024-7.376-5.433-7.359-9.432c0.019-4.4,4.262-14.182,11.877-17.549c0.979,4.604,4.963,8.422,12.567,7.455
		C421.929,118.37,419.571,125.141,415.407,129.717z M519.249,137.095c-5.4-0.023-7.184-3.832-7.166-7.832
		c0.019-4.4,3.663-14.384,10.483-18.954c0.979,4.604,3.557,9.815,11.565,8.05c-0.551,1.897-1.497,4.667-2.827,7.497
		C528.714,131.372,524.667,137.119,519.249,137.095z"/>
</g>
<path fill="#ED1C24" d="M637.144,143.842c0-3.36,2.736-6.097,6.128-6.097c3.376,0,6.096,2.736,6.096,6.097
	c0,3.392-2.72,6.128-6.096,6.128C639.88,149.97,637.144,147.234,637.144,143.842z M648.632,143.842c0-2.96-2.4-5.36-5.36-5.36
	c-2.977,0-5.376,2.4-5.376,5.36c0,2.992,2.4,5.392,5.376,5.392C646.232,149.234,648.632,146.834,648.632,143.842z M646.313,147.266
	h-0.992l-1.952-3.152h-1.536v3.152H641v-6.832h2.977c0.576,0,1.152,0.032,1.664,0.336c0.512,0.288,0.768,0.896,0.768,1.472
	c0,1.344-0.944,1.84-2.16,1.872L646.313,147.266z M643.112,143.458c0.96,0,2.448,0.16,2.448-1.232c0-1.056-0.928-1.184-1.776-1.184
	h-1.952v2.416H643.112z"/>
</svg>
